<?xml version="1.0" encoding="utf-8"?>
<!-- Generator: Adobe Illustrator 21.1.0, SVG Export Plug-In . SVG Version: 6.00 Build 0)  -->
<svg version="1.1" id="Layer_1" xmlns="http://www.w3.org/2000/svg" xmlns:xlink="http://www.w3.org/1999/xlink" x="0px" y="0px"
	 viewBox="0 0 260 66" style="enable-background:new 0 0 260 66;" xml:space="preserve">
<style type="text/css">
	.st0{fill-rule:evenodd;clip-rule:evenodd;fill:#231F20;}
</style>
<g>
	<g>
		<path class="st0" d="M218,39.3c-1.1,0-2,0.9-2,2c0,1.1,0.9,2,2,2c1.1,0,2-0.9,2-2C220,40.2,219.1,39.3,218,39.3z M218,43.2
			c-1,0-1.8-0.8-1.8-1.8c0-1,0.8-1.8,1.8-1.8c1,0,1.8,0.8,1.8,1.8C219.8,42.4,219,43.2,218,43.2z"/>
		<path class="st0" d="M218.9,41.9c0-0.4-0.1-0.4-0.3-0.6c0.2-0.2,0.3-0.3,0.3-0.6c0-0.5-0.4-0.6-0.7-0.6h-1v2.2h0.3v-1h0.7
			c0.5,0,0.3,0.4,0.4,0.7l0,0.3h0.4C218.9,42.2,218.9,42.2,218.9,41.9z M218.2,41.2h-0.7v-0.8h0.7c0.2,0,0.5,0,0.4,0.4
			C218.6,41.2,218.4,41.2,218.2,41.2z"/>
	</g>
	<path class="st0" d="M193.9,39.1h-22.3v21.7h22.3C226.9,60.8,226.9,39.1,193.9,39.1z M191.5,54.3h-2.3v-8.4h2.3
		C204.1,45.9,204.1,54.3,191.5,54.3z"/>
	<path class="st0" d="M136.4,39.1h11.7l10.4,11.5c0.6,0.6,1.2,0.5,0.8-0.5c-0.4-0.9-0.7-2.9-0.7-2.9v-8.2H170v21.7h-11.5L148,49.7
		c-0.6-0.6-1.2-0.5-0.8,0.5c0.4,0.9,0.6,2.9,0.6,2.9v7.7h-11.4V39.1L136.4,39.1z"/>
	<path class="st0" d="M118.8,38.6c-9.5,0-17.2,5-17.2,11.2c0,6.2,7.7,11.2,17.2,11.2c9.4,0,17.2-5.1,17.2-11.2
		C136,43.6,128.2,38.6,118.8,38.6z M118.8,54.1c-3.2,0-5.9-1.9-5.9-4.3c0-2.4,2.6-4.3,5.9-4.3s5.9,1.9,5.9,4.3
		C124.7,52.2,122,54.1,118.8,54.1z"/>
	<polygon class="st0" points="60.3,39.1 89,39.1 92.4,45.3 95.6,39.1 107.5,39.1 97.4,51.6 97.4,60.8 87.2,60.8 87.2,51.3 
		77.7,39.9 77.7,45 69.7,45 69.7,47.1 77,47.1 77,52.7 69.7,52.7 69.7,54.9 78.1,54.9 78.1,60.8 60.3,60.8 60.3,39.1 	"/>
	<path class="st0" d="M54.6,49.7c3.4-1.2,3.1-5.1,3.1-5.1c0-5.8-8.7-5.5-8.7-5.5H38.5v21.7H50c5,0,8.9-1.9,8.9-5.9
		S54.6,49.7,54.6,49.7z M46.4,44.3h2.1c2.2,0,2.2,3.3,0,3.3h-2.1V44.3z M48.8,55.7h-2.4v-3.6h2.4C51.9,52.1,51.9,55.7,48.8,55.7z"/>
	<path class="st0" d="M215,28.6c2.5-2.4,4.1-4.7,4.1-4.7l-1.2-0.7c-1.4,1.5-2.7,2.8-3.9,4c-2.9-3.9-6.1-8.2-7.6-10.1
		c3.1-2.2,5.8-4.4,5.8-7.2c0-3-2.3-5.8-5.4-5.8c-3.1,0-5.9,2.5-5.9,5.7c0,3.2,3.1,6.8,3.1,6.8c-0.7,0.4-1.4,0.9-2.2,1.5
		c-3.4,2.3-6.9,4.7-6.9,10c0,5.2,5.1,7.5,7.9,7.5c2.8,0,5.8-1.7,9.7-4.7c0.5-0.4,0.9-0.7,1.3-1.1l3.8,5.1h2.1
		C219.7,34.9,217.6,32.1,215,28.6z M202.7,10.1c0-1.4,0.7-4.2,3.8-4.2c3.1,0,3.7,3,3.7,3.9c0,0.9-0.2,1.9-1.6,3.4
		c-0.8,0.9-1.9,1.6-3.3,2.5C203.4,13.2,202.7,11.4,202.7,10.1z M202.5,33.6c-3.3,0-5.9-2.9-5.9-6.1s2-4.9,3.5-6
		c1.4-1,2.2-1.5,4.9-3.5l7.7,10.4C208.3,32.2,204.9,33.6,202.5,33.6z"/>
	<polygon class="st0" points="165.4,17.5 183.8,17.5 183.8,4.8 185.6,4.8 185.6,34.9 183.8,34.9 183.8,19.4 165.4,19.4 165.4,34.9 
		163.7,34.9 163.7,4.8 165.4,4.8 165.4,17.5 	"/>
	<polygon class="st0" points="144.4,4.8 161.8,4.8 161.8,6.5 154,6.5 154,34.9 152.2,34.9 152.2,6.5 144.4,6.5 144.4,4.8 	"/>
	<path class="st0" d="M137.8,3.8l-12.5,31.2h2l4-10h13.1l4.1,10h1.9L137.8,3.8z M131.9,23.1l5.8-14.6l5.9,14.6H131.9z"/>
	<path class="st0" d="M82.7,4.8h-6.8v30.1h6.4C102.4,34.9,102,4.8,82.7,4.8z M82.4,33h-4.5V6.7h4.5C99.7,6.7,99.4,33,82.4,33z"/>
	<polygon class="st0" points="58.3,4.8 72.7,4.8 72.7,6.7 60.2,6.7 60.2,17.6 72.3,17.6 72.3,19.4 60.2,19.4 60.2,33.1 72.7,33.1 
		72.7,34.9 58.3,34.9 58.3,4.8 	"/>
	<path class="st0" d="M120.6,18.9c3.8-2,3.3-6.8,3.3-6.8c-0.3-7.3-7.7-7.3-7.7-7.3h-6.9v30.1h7.6c4.5,0,9.6-2,9.6-8.4
		C126.6,20.2,120.6,18.9,120.6,18.9z M111.1,6.6h5.1c8,0,8,11.9,0,11.9h-5.1V6.6z M117.6,33h-6.5V20.4h6.7
		C127.3,20.4,127,33,117.6,33z"/>
	<path class="st0" d="M50,18.9c3.8-2,3.3-6.8,3.3-6.8c-0.3-7.3-7.7-7.3-7.7-7.3h-6.9v30.1h7.6c4.5,0,9.6-2,9.6-8.4
		C56,20.2,50,18.9,50,18.9z M40.4,6.6h5.1c8,0,8,11.9,0,11.9h-5.1V6.6z M47,33h-6.4V20.4h6.7C56.7,20.4,56.4,33,47,33z"/>
</g>
</svg>
