<?xml version="1.0" encoding="utf-8"?>
<!-- Generator: Adobe Illustrator 21.1.0, SVG Export Plug-In . SVG Version: 6.00 Build 0)  -->
<svg version="1.1" id="Layer_1" xmlns="http://www.w3.org/2000/svg" xmlns:xlink="http://www.w3.org/1999/xlink" x="0px" y="0px"
	 viewBox="0 0 260 66" style="enable-background:new 0 0 260 66;" xml:space="preserve">
<style type="text/css">
	.st0{fill-rule:evenodd;clip-rule:evenodd;fill:#231F20;}
</style>
<g>
	<path class="st0" d="M136.3,50.4l-2.5-3.1c-2,2-6.5,4-9.7,4c-5.5,0-10.3-4-10.3-9.2c0-6.5,6.2-10,8-10.6c-1.2-1.5-3.4-4.2-3.4-7.4
		c0.2-4.3,2.8-7.7,8.5-7.7c4.9,0,8.6,3.2,8.6,8c0,5.4-4.2,7.2-5.4,8.3l4,5.7c1.1-1.4,2.2-4.8,2-5.4h5.4c0,0-0.8,6.8-3.8,10l5.7,7.4
		H136.3L136.3,50.4z M127.1,21.5c-1.7,0-3.1,1.4-2.9,2.8c0.2,1.8,1.7,3.1,2.6,4.3c1.2-0.9,3.4-2.2,3.4-4.2
		C130.1,22.9,128.9,21.5,127.1,21.5L127.1,21.5z M125.1,35.8c-5.2,3.5-4.9,6-4.9,6c0,2.5,2.3,3.8,4,4c2,0,4.9-1.7,6.3-2.9
		L125.1,35.8L125.1,35.8z"/>
	<path class="st0" d="M33.1,30.9c-1.2-4.9-5.7-8.9-10.9-8.9c-6.6,0-11.5,5.2-11.4,11.5c0.2,6.2,4.9,10.9,11.4,10.9
		c6.2,0,9.7-4.5,10.5-7.4h6.5C37.7,46.1,28.9,50.9,22,50.9c-7.8,0-17.7-6.5-17.7-17.4c0-10.3,7.8-18,17.8-18
		c8.5,0,16.2,6.5,17.2,15.4H33.1L33.1,30.9z"/>
	<path class="st0" d="M85.4,50.6c-5.1,0-6-3.7-6-5.7V29.9h-3.2v-4.8h3.2v-7.4h6.5v7.7H90v4.5h-4.2v13.4c0,3.4,4.2,2.3,4.8,2.5v4.8
		H85.4L85.4,50.6z"/>
	<path class="st0" d="M46.9,39.2c0,0.3,0,11.2,0,11.2h-6.3V25.9h6.2v2.5c0.9-1.2,2.8-2.6,4.8-3.2c1.4-0.2,2.8,0,2.8,0v6
		C51.1,30.3,46.6,31.6,46.9,39.2L46.9,39.2z"/>
	<path class="st0" d="M95.4,39.6c0,3.2,3.1,5.7,6.3,5.7c2.3,0,3.7-0.9,4.9-2.8h6.6c-0.9,4.3-5.4,8.3-11.2,8.3
		c-7.5,0-12.9-5.7-12.9-13.7c0-6.2,4.6-12.5,12.2-12.3c8.6,0.2,12.5,7.5,12.3,14.8H95.4L95.4,39.6z M101.1,29.9
		c-2.8-0.2-5.4,2-5.4,5.1h10.8C106.4,31.9,104,29.9,101.1,29.9L101.1,29.9z"/>
	<path class="st0" d="M70.6,50.4c0,0.2-0.2-0.9-0.5-2c-1.1,0.9-3.5,2.8-7.4,2.8c-4.3,0-9.2-2.6-9.2-7.7c0-3.1,2-7.1,8.9-8
		c4-0.6,7.1-0.3,7.2-2.5c0.2-0.8-0.6-3.4-4.6-3.4c-1.8,0-4.2,0.6-4.6,3.5h-5.5c0-4.3,2.6-8,10.8-8c5.1,0,10.2,2.2,10.2,7.7
		c0,0,0,13.1,0,13.5c0.2,1.4,0.6,3.2,1.1,4H70.6L70.6,50.4z M59.2,43.3c0.2,2.6,3.5,3.1,4.2,2.8c0,0,3.4,0,4.9-1.7
		c0.9-1.2,1.4-2.8,0.9-6.2C63.1,39.6,59.2,40.3,59.2,43.3L59.2,43.3z"/>
	<polygon class="st0" points="249.4,17.5 255.5,17.5 255.5,50.4 249.4,50.4 249.4,17.5 	"/>
	<path class="st0" d="M216.9,39.3c0,0.3,0,11.1,0,11.1h-6.3V26.1h6.2v2.5c1.1-1.2,2.8-2.8,4.8-3.2c1.5-0.3,2.9,0,2.9,0v6
		C220.9,30.4,216.6,31.8,216.9,39.3L216.9,39.3z"/>
	<path class="st0" d="M201.7,39.3c0,0.3,0,11.1,0,11.1h-6.5V26.1h6.3v2.5c1.1-1.2,2.8-2.8,4.8-3.2c1.4-0.3,2.8,0,2.8,0v6
		C205.8,30.4,201.4,31.8,201.7,39.3L201.7,39.3z"/>
	<path class="st0" d="M230.2,39.8c0,3.1,3.1,5.5,6.3,5.5c2.2,0,3.7-0.8,4.9-2.8h6.5c-0.8,4.3-5.2,8.3-11.1,8.3
		c-7.4,0-12.9-5.7-12.9-13.5c0-6.2,4.6-12.5,12.2-12.3c8.5,0,12.5,7.5,12.2,14.8H230.2L230.2,39.8z M236,29.9c-2.9,0-5.5,2-5.5,5.1
		h10.8C241.2,32.1,238.9,29.9,236,29.9L236,29.9z"/>
	<path class="st0" d="M160.9,50.4c-6.9,0-17.2,0-17.2,0V17.3h14.9c5.1,0,10.3,2.3,10.3,8.5c0,5.1-4,6.2-4.9,6.9
		c2.9,0.9,6.2,3.7,6.2,9.1C170.1,47.6,164.5,50.4,160.9,50.4L160.9,50.4z M157.2,22.6h-7.4v8.2h7.1c1.5,0,5.2-0.6,5.2-4.5
		C162.1,23.6,159.5,22.6,157.2,22.6L157.2,22.6z M157.2,35.6h-7.4v9.7h7.8c1.1,0,5.2-0.9,5.2-4.5C162.9,38.9,162.5,35.6,157.2,35.6
		L157.2,35.6z"/>
	<path class="st0" d="M188.2,50.4c0,0.2-0.3-0.9-0.5-2c-1.1,0.9-3.5,2.8-7.4,2.8c-4.3,0-9.2-2.6-9.2-7.7c0-3.1,2-6.9,9.1-8
		c3.7-0.6,6.9-0.3,7.1-2.5c0.2-0.6-0.6-3.2-4.6-3.2c-1.8,0-4,0.5-4.5,3.5h-5.7c0-4.3,2.9-8,10.8-8c4.9,0,10,2.2,10.2,7.7
		c0,4.6,0,12.6,0,12.6c0,1.1,0.5,3.8,0.9,4.8H188.2L188.2,50.4z M177.5,43.3c0,2.6,3.5,3.1,4.2,2.8c0,0,3.4,0,4.8-1.7
		c0.9-1.2,1.2-2.6,0.9-6.2C181.4,39.8,177.5,40.3,177.5,43.3L177.5,43.3z"/>
</g>
</svg>
