<?xml version="1.0" encoding="utf-8"?>
<!-- Generator: Adobe Illustrator 21.1.0, SVG Export Plug-In . SVG Version: 6.00 Build 0)  -->
<svg version="1.1" id="Layer_1" xmlns="http://www.w3.org/2000/svg" xmlns:xlink="http://www.w3.org/1999/xlink" x="0px" y="0px"
	 viewBox="0 0 266 184" style="enable-background:new 0 0 266 184;" xml:space="preserve">
<style type="text/css">
	.st0{fill:#FFFFFF;}
</style>
<g>
	<g>
		<path class="st0" d="M209.9,59.3c-0.7,0-1.2-0.5-1.2-1.2c0-8.6,11.1-17.7,31.7-17.7c15.7,0,19.8-8.8,20.7-11.5
			c0.2-0.6,0.9-1,1.5-0.8c0.6,0.2,1,0.9,0.8,1.5c-1,3.1-5.7,13.2-23,13.2c-11.5,0-18.4,2.8-22.2,5.2c-4.5,2.8-7,6.5-7,10.1
			C211.1,58.8,210.5,59.3,209.9,59.3z"/>
	</g>
	<g>
		<path class="st0" d="M217.1,84.1c-8,0-14.7-3-19.6-8.6c-4.2-4.9-6.6-11.6-6.6-18.4c0-9.4,5.4-19,12.7-24.5
			c-2.1-2.3-4.1-6-4.1-11.6c0-12,10.1-18.4,19.5-18.4c9.7,0,15.6,7.1,15.6,12.2c0,0.7-0.5,1.2-1.2,1.2c-0.7,0-1.2-0.5-1.2-1.2
			c0-4-5.1-9.7-13.2-9.7c-8.3,0-17.1,5.6-17.1,16c0,4.6,1.5,7.9,3.7,10.2c3.3-2,6.8-3.2,10.3-3.2c7.7,0,8.8,3,8.8,4.8
			c0,2.5-2.9,5.1-9.3,5.1c-3.6,0-7.2-1.3-10-3.5c-6.8,5-12,14-12,22.8c0,12.2,8.1,24.6,23.7,24.6c16.2,0,26.6-10.9,26.6-27.6
			c0-7.5-2.9-11.7-2.9-11.8c-0.4-0.6-0.2-1.3,0.3-1.7c0.6-0.4,1.3-0.2,1.7,0.3c0.1,0.2,3.3,4.9,3.3,13.2
			C246.2,72,234.5,84.1,217.1,84.1z M207.6,32.9c2.5,1.8,5.5,2.5,7.9,2.5c4.7,0,6.9-1.5,6.9-2.6c0-1.4-2.5-2.3-6.4-2.3
			C213.2,30.4,210.3,31.3,207.6,32.9z"/>
	</g>
	<g>
		<path class="st0" d="M210.5,138.2c-0.4,0-0.8-0.2-1-0.6c-0.1-0.1-1.6-2.6-1.6-5.7c0-3.9,3-9.1,6.3-14.7c3.5-5.9,7.4-12.7,7.4-17.8
			c0-4.3-4-5.8-7.7-5.8c-14,0-27.2,23.5-33.5,34.8c-3.2,5.7-3.6,6.4-4.7,6.4c-0.5,0-0.9-0.3-1.1-0.7c-0.2-0.4-0.1-0.9,0.2-1.3
			c0.6-0.7,1.2-1.7,1.7-2.7c0.3-0.6,0.7-1.2,1-1.8c1.8-2.9,4-8,6.4-13.8c8.1-19.2,20.5-48.2,41.7-48.2c0.7,0,1.2,0.5,1.2,1.2
			c0,0.7-0.5,1.2-1.2,1.2c-18.3,0-29.9,24.3-37.8,42.7c7-10.2,16.2-20.2,26-20.2c5,0,10.1,2.5,10.1,8.2c0,5.8-3.9,12.5-7.7,19.1
			c-3.1,5.2-5.9,10.2-5.9,13.4c0,2.4,1.2,4.4,1.2,4.4c0.4,0.6,0.2,1.3-0.4,1.7C210.9,138.1,210.7,138.2,210.5,138.2z"/>
	</g>
	<g>
		<path class="st0" d="M69.1,172c-12.3,0-23.6-3.9-33.7-7.4c-2.8-1-5.5-1.9-8-2.7c-4.2,5.8-9.1,9.5-15,9.5c-9,0-9.2-6.1-9.2-6.8
			c0-1.7,0.9-7.4,11.9-7.4c3.5,0,7.2,0.8,11.3,2c5.1-7.7,9.3-18.8,13.5-29.7c7.8-20.4,15.8-41.6,30.3-41.6c0.7,0,1.2,0.5,1.2,1.2
			s-0.5,1.2-1.2,1.2c-12.8,0-20.5,20.3-28,40c-4.1,10.7-8.2,21.6-13.4,29.5c2.4,0.7,4.8,1.6,7.4,2.5c9.9,3.4,21,7.3,32.9,7.3
			c16,0,22.7-8,22.8-8.1c0.4-0.5,1.2-0.6,1.7-0.2c0.5,0.4,0.6,1.2,0.2,1.7C93.4,163.4,86.2,172,69.1,172z M15.1,159.5
			c-8.8,0-9.5,3.8-9.5,5c0,0.7,0.3,4.4,6.8,4.4c4.8,0,8.9-3,12.5-7.8C21.4,160.2,18.1,159.5,15.1,159.5z"/>
	</g>
	<g>
		<path class="st0" d="M19.6,112.7c-9,0-9.2-6.1-9.2-6.8c0-0.7,0.4-7.1,13-7.1c3.2,0,6.2,0.8,9.3,2c6.4-9.7,11.4-25.3,15.8-38.9
			c4.8-15.2,9-28.3,14.3-31.9c0.6-0.4,1.3-0.2,1.7,0.3c0.4,0.6,0.2,1.3-0.3,1.7c-4.6,3.2-8.9,16.5-13.4,30.7
			c-4.5,14-9.3,29.2-15.7,39.1c1.1,0.5,2.1,0.9,3.3,1.4c6.6,2.9,14,6.3,24.1,6.3c11.8,0,22.1-10.5,22.1-22.5c0-7-4.4-15-10.7-19.4
			c-3,1.4-6.3,2.2-9.8,2.2c-7.1,0-7.7-3.1-7.7-4c0-2.2,3.4-3.8,7.7-3.8c3.2,0,6.5,1,9.7,2.9c7.2-3.8,13.1-11.5,13.1-20.9
			c0-5-2-21.5-27.5-21.5c-12.9,0-24.8,3.6-33.7,10.2c-8.1,6-12.7,13.7-12.7,21.3c0,13.1,9.9,16.1,13.4,16.1c3.5,0,6.1-1.4,6.1-1.4
			c0.6-0.3,1.3-0.1,1.6,0.5c0.3,0.6,0.1,1.3-0.5,1.6c-0.1,0.1-3.2,1.7-7.3,1.7c-4.1,0-15.8-3.4-15.8-18.5
			c0-16.4,19.6-33.9,48.8-33.9c10.4,0,18.4,2.7,23.6,8c4.1,4.1,6.3,9.8,6.3,15.9c0,8.5-5.2,17.6-13.2,22.5
			c6.1,4.5,10.9,12.1,10.9,20.7c0,13.3-11.5,25-24.5,25c-10.5,0-18.3-3.4-25.1-6.5c-1.3-0.6-2.5-1.1-3.7-1.6
			C29.6,109.3,25,112.7,19.6,112.7z M23.3,101.2c-8.3,0-10.5,3-10.5,4.7c0,0.7,0.3,4.4,6.8,4.4c4.3,0,8.2-2.8,11.6-7.4
			C28.5,101.9,25.9,101.2,23.3,101.2z M58.6,65.7c0.1,0.5,1.4,1.6,5.2,1.6c2.3,0,4.8-0.5,7.1-1.4c-2.2-1.1-4.6-1.7-7-1.7
			C60.8,64.3,58.9,65.3,58.6,65.7z"/>
	</g>
	<g>
		<path class="st0" d="M106.3,89.4c-10.9,0-14.8-9.4-14.8-17.4c0-11.9,10-27,21.3-27c4.9,0,7.9,3,7.9,7.9c0,8.4-11,17.6-21,17.6
			c-2.8,0-4.6-0.1-5.7-0.3c-0.1,0.6-0.1,1.2-0.1,1.8c0,7.2,3.3,14.9,12.4,14.9c11.5,0,19.9-14.3,27.2-26.9c6.4-11,12-20.5,19.1-20.5
			c1.9,0,2.9,1,3.4,1.8c1.4,2.3,0.7,6.9-1,12.2c6.8-10,15.2-19.1,23.4-19.1c3,0,5.1,1.1,6.3,3.2c5.2,9.3-11,36.2-12.9,39.2
			c-0.4,0.6-1.1,0.8-1.7,0.4c-0.6-0.4-0.8-1.1-0.4-1.7c4.9-7.9,16.6-29.9,12.8-36.7c-0.7-1.3-2.1-2-4.2-2c-6.6,0-14.8,7.4-23.6,21.5
			c-1.9,3-3.7,6.1-5.2,8.9c-2.9,6.4-5.7,11.7-6.4,13c-0.3,0.6-1,0.8-1.6,0.5c-0.6-0.3-0.8-1-0.6-1.6c0.3-0.6,2.7-6.2,6.5-13.2
			c4.5-10,8.2-20.4,6.4-23.4c-0.2-0.3-0.5-0.6-1.3-0.6c-5.7,0-11.2,9.4-17,19.3C127.9,74.5,119.2,89.4,106.3,89.4z M94.3,67.9
			c1,0.1,2.7,0.2,5.4,0.2c8.7,0,18.5-8.1,18.5-15.2c0-3.6-1.8-5.5-5.5-5.5C104.3,47.4,96.2,58,94.3,67.9z"/>
	</g>
	<g>
		<path class="st0" d="M83.8,152.8c-10.9,0-14.8-9.4-14.8-17.4c0-11.9,10-27,21.3-27c4.9,0,7.9,3,7.9,7.9c0,8.4-11,17.6-21,17.6
			c-2.8,0-4.6-0.1-5.7-0.3c-0.1,0.6-0.1,1.2-0.1,1.8c0,7.2,3.3,14.9,12.4,14.9c14.2,0,25.8-22.3,25.9-22.5l9.8-17
			c2.1-3.9,3.8-6.6,4-6.9c0.3-0.6,1.1-0.7,1.7-0.4c0.6,0.3,0.8,1.1,0.4,1.7l-3.8,6.5c-4,7.2-9.9,18.7-9.9,24.1c0,7,4.4,7.8,6.3,7.8
			c5.3,0,9.9-5.8,12.7-10.6c3.2-5.4,5.1-11,5.1-11c0.2-0.6,0.9-1,1.5-0.8c0.6,0.2,1,0.9,0.8,1.5c-0.3,1-8,23.3-20.2,23.3
			c-5.4,0-8.7-3.9-8.7-10.2c0-1.1,0.2-2.3,0.5-3.7C106.2,138.4,96.2,152.8,83.8,152.8z M71.8,131.2c1,0.1,2.7,0.2,5.4,0.2
			c8.7,0,18.5-8.1,18.5-15.2c0-3.6-1.8-5.5-5.5-5.5C81.8,110.8,73.7,121.4,71.8,131.2z"/>
	</g>
	<g>
		<path class="st0" d="M138.3,180.3c-6.1,0-9.7-4.6-9.7-12.3c0-4.9,2.5-9.9,7.3-14.6c3.5-3.5,7-5.5,7.2-5.6c0.6-0.3,1.3-0.1,1.7,0.4
			c0.3,0.6,0.1,1.3-0.4,1.7c-0.1,0.1-13.2,7.8-13.2,18.1c0,8.6,4.6,9.9,7.3,9.9c10.9,0,16.7-17.8,23.3-38.4
			c4.9-15.1,10.4-32.2,19-44.2c0.4-0.5,1.1-0.7,1.7-0.3c0.5,0.4,0.7,1.2,0.3,1.7c-8.4,11.7-13.8,28.6-18.6,43.5
			C157,161.7,151,180.3,138.3,180.3z"/>
	</g>
	<g>
		<path class="st0" d="M148.3,139.4c-5.9,0-12.2-4.6-12.2-14.7c0-15.3,12.1-29.3,25.4-29.3c4.4,0,7.7,1.3,9.9,4
			c4,4.7,2.9,11.9,2.8,12.2c-0.1,0.7-0.7,1.1-1.4,1c-0.7-0.1-1.1-0.7-1-1.4c0-0.1,1-6.4-2.3-10.2c-1.7-2.1-4.5-3.1-8.1-3.1
			c-12,0-22.9,12.8-22.9,26.9c0,5.9,3,12.3,9.7,12.3c3.7,0,11.4,0,21.1-20.1c0.3-0.6,1-0.9,1.6-0.6c0.6,0.3,0.9,1,0.6,1.6
			C161.2,139.4,152.5,139.4,148.3,139.4z"/>
	</g>
	<g>
		<ellipse transform="matrix(0.5 -0.866 0.866 0.5 -13.0661 159.8595)" class="st0" cx="131.9" cy="91.2" rx="2.4" ry="1.7"/>
	</g>
</g>
</svg>
