<?xml version="1.0" encoding="utf-8"?>
<!-- Generator: Adobe Illustrator 21.1.0, SVG Export Plug-In . SVG Version: 6.00 Build 0)  -->
<svg version="1.1" id="Layer_1" xmlns="http://www.w3.org/2000/svg" xmlns:xlink="http://www.w3.org/1999/xlink" x="0px" y="0px"
	 viewBox="0 0 174 176" style="enable-background:new 0 0 174 176;" xml:space="preserve">
<style type="text/css">
	.st0{fill:#1A1A1A;}
</style>
<g>
	<g>
		<path d="M18.4,97.1L18,92.5c-0.1-1.2,0.1-2.1,0.6-2.8c0.5-0.7,1.2-1.1,2.1-1.2c1.3-0.1,2.2,0.6,2.7,2c0.1-0.8,0.3-1.4,0.8-1.9
			c0.5-0.5,1.1-0.8,1.8-0.8c0.9-0.1,1.6,0.2,2.2,0.8c0.6,0.6,0.9,1.5,1,2.7l0.4,4.9L18.4,97.1z M20,94.7l2.9-0.2l-0.2-2.1
			c0-0.5-0.2-0.9-0.5-1.2c-0.3-0.3-0.7-0.4-1.1-0.4c-0.5,0-0.8,0.2-1.1,0.5c-0.2,0.3-0.3,0.7-0.3,1.2L20,94.7z M27.8,94.1l-0.2-2.3
			c0-0.5-0.2-0.9-0.5-1.2s-0.7-0.4-1.2-0.4c-0.5,0-0.9,0.2-1.1,0.6c-0.3,0.3-0.4,0.8-0.3,1.3l0.2,2.3L27.8,94.1z"/>
		<path d="M19.9,70.3l1.7,0.4l-0.9,4.2l2.9,0.6l0.8-3.7l1.7,0.4l-0.8,3.7l3.1,0.6l0.9-4.2l1.7,0.4l-1.3,6.5l-11.2-2.3L19.9,70.3z"/>
		<path d="M27.5,52.2l1.1-2l10.1,5.4l-1.1,2l-9.4,0.8l7,3.8l-1.1,2l-10.1-5.4l1.1-2l9.4-0.8L27.5,52.2z"/>
		<path d="M59.2,36.6l-1.8-1.4l-3.8,2.4l0.5,2.2L52.2,41l-2.7-11.8l2.3-1.4l9.5,7.6L59.2,36.6z M53.3,35.7l2.8-1.7l-3.9-3.2
			L53.3,35.7z"/>
		<path d="M73.2,19.3l2.2-0.6l2.8,11.1L76,30.4L69,23.9l1.9,7.7l-2.2,0.6l-2.8-11.1l2.2-0.6l6.9,6.4L73.2,19.3z"/>
		<path d="M91.7,17.9c1.8,0.1,3.3,0.7,4.3,1.9c1.1,1.1,1.5,2.5,1.4,4.3c-0.1,1.7-0.8,3.1-2,4c-1.2,1-2.7,1.4-4.5,1.3L87,29.1
			l0.8-11.4L91.7,17.9z M89.5,27.5l1.6,0.1c1.2,0.1,2.1-0.2,2.9-0.9c0.7-0.7,1.1-1.6,1.2-2.8s-0.2-2.2-0.8-2.9
			c-0.6-0.8-1.5-1.2-2.7-1.2L90,19.6L89.5,27.5z"/>
		<path d="M122.1,26.8l2,1.2l-5.1,8.2l3.1,1.9l-0.9,1.5l-5.1-3.1L122.1,26.8z"/>
		<path d="M140.4,41.7l-1.3,1.2l-3-3.1l-2.2,2.1l2.6,2.7l-1.3,1.2l-2.6-2.7l-2.3,2.2l3,3.1l-1.3,1.2l-4.6-4.7l8.2-7.9L140.4,41.7z"
			/>
		<path d="M137.6,57.1l9.8-5.8l1.2,2l-9.8,5.8L137.6,57.1z"/>
		<path d="M144.5,67.9c0.8-1.4,2-2.3,3.6-2.7c1.6-0.4,3.1-0.3,4.5,0.5c1.4,0.8,2.3,2,2.7,3.6c0.3,1.2,0.3,2.3,0,3.4
			c-0.4,1.1-1,2-2,2.7l-0.7-2.7c0.8-0.8,1.1-1.7,0.8-2.9c-0.3-1-0.8-1.7-1.7-2.2c-0.8-0.4-1.8-0.5-2.9-0.2c-1.1,0.3-1.9,0.9-2.4,1.7
			c-0.5,0.8-0.6,1.7-0.4,2.6s0.7,1.6,1.3,2c0.6,0.4,1.3,0.6,2.1,0.5l-1-3.7l1.7-0.5l1.7,6l-1.7,0.5c-1.2,0.1-2.5-0.2-3.6-0.9
			c-1.2-0.7-2-1.9-2.4-3.4C143.6,70.7,143.8,69.2,144.5,67.9z"/>
		<path d="M157.4,93.6l-0.1,2.3l-11.4-0.6L146,93l4.9,0.2l0.2-4.9l-4.9-0.2l0.1-2.3l11.4,0.6l-0.1,2.3l-4.8-0.2l-0.2,4.9L157.4,93.6
			z"/>
	</g>
	<g>
		<path d="M34.7,133.2l7.1-6.3l-1.1-1.3l1.6-1.4l2.7,3.1l-8.7,7.7L34.7,133.2z"/>
		<path d="M47.9,137.8c2.2-3.3,4.6-4,7-2.4c2.4,1.7,2.5,4.1,0.3,7.4c-2.2,3.3-4.6,4-7,2.4C45.7,143.6,45.7,141.1,47.9,137.8z
			 M54.4,137.9c-0.1-0.3-0.4-0.5-0.7-0.7c-0.3-0.2-0.6-0.3-0.9-0.4c-0.3,0-0.6,0-0.8,0.1c-0.2,0.1-0.5,0.3-0.8,0.5
			c-0.3,0.2-0.5,0.5-0.7,0.7c-0.2,0.3-0.4,0.6-0.7,0.9c-0.3,0.4-0.5,0.7-0.6,1c-0.2,0.3-0.3,0.6-0.4,0.9c-0.1,0.3-0.2,0.6-0.2,0.9
			c0,0.3,0.1,0.5,0.2,0.8c0.1,0.3,0.4,0.5,0.7,0.7c0.3,0.2,0.6,0.3,0.9,0.4c0.3,0,0.6,0,0.8-0.1c0.2-0.1,0.5-0.3,0.8-0.5
			c0.3-0.2,0.5-0.5,0.7-0.7c0.2-0.3,0.4-0.6,0.7-0.9c0.3-0.4,0.5-0.7,0.6-1c0.2-0.3,0.3-0.6,0.4-0.9c0.1-0.3,0.2-0.6,0.2-0.9
			C54.6,138.5,54.5,138.2,54.4,137.9z"/>
		<path d="M66.3,148.5c-0.1,0.3-0.4,0.6-0.7,0.7c-0.3,0.1-0.7,0.2-1,0c-0.3-0.1-0.6-0.4-0.7-0.7c-0.1-0.3-0.2-0.7,0-1
			c0.1-0.3,0.4-0.6,0.7-0.7c0.3-0.1,0.7-0.2,1,0c0.3,0.1,0.6,0.4,0.7,0.7C66.4,147.8,66.4,148.1,66.3,148.5z"/>
		<path d="M75,156.3l0.2-1.7c0.3-0.2,0.8-0.5,1.4-1c0.6-0.4,1.1-0.8,1.5-1c0.3-0.2,0.7-0.5,1.2-0.9c0.5-0.4,0.8-0.7,1.1-1
			c0.6-0.7,1-1.3,1-1.9c0.1-1.1-0.3-1.8-1.4-1.9c-0.5-0.1-0.9,0.1-1.3,0.4c-0.3,0.3-0.5,0.8-0.6,1.4l-2.2-0.3
			c0.2-1.3,0.7-2.2,1.5-2.7c0.8-0.6,1.8-0.8,3-0.6c1.2,0.1,2.1,0.6,2.6,1.4c0.6,0.8,0.8,1.6,0.7,2.7c-0.1,0.8-0.4,1.4-0.8,2
			c-0.2,0.3-0.5,0.6-0.7,0.8c-0.2,0.2-0.5,0.5-0.9,0.8c-0.4,0.3-0.7,0.5-0.9,0.7c-0.2,0.2-0.5,0.4-1,0.7s-0.7,0.5-0.9,0.6l4.7,0.6
			l-0.2,1.9L75,156.3z"/>
		<path d="M93.2,148.4c-0.1-0.9,0.1-1.7,0.7-2.4c0.6-0.7,1.5-1.2,2.8-1.4c1.3-0.2,2.3,0,3.1,0.5s1.2,1.2,1.4,2.1
			c0.2,1.2-0.2,2.1-1.2,2.8c1.3,0.3,2.1,1.2,2.4,2.7c0.2,1.1-0.1,2.1-0.8,2.9c-0.7,0.8-1.7,1.3-2.9,1.5c-1.2,0.2-2.3,0-3.2-0.5
			c-0.9-0.5-1.4-1.4-1.6-2.5c-0.1-0.7,0-1.3,0.2-1.9c0.3-0.6,0.7-1,1.2-1.4C94.1,150.3,93.4,149.5,93.2,148.4z M99,147.8
			c-0.1-0.5-0.3-0.9-0.7-1.1c-0.4-0.2-0.8-0.3-1.4-0.2c-0.5,0.1-0.9,0.3-1.2,0.6c-0.3,0.3-0.4,0.8-0.3,1.3c0.1,0.5,0.3,0.9,0.7,1.1
			c0.4,0.2,0.8,0.3,1.3,0.3c0.5-0.1,0.9-0.3,1.2-0.6C99,148.7,99.1,148.3,99,147.8z M99.3,151.6c-0.4-0.3-0.9-0.4-1.5-0.3
			c-0.6,0.1-1.1,0.3-1.4,0.7c-0.3,0.4-0.4,0.9-0.4,1.4c0.1,0.6,0.3,1,0.8,1.3c0.4,0.3,1,0.4,1.6,0.3c0.6-0.1,1.1-0.4,1.4-0.8
			c0.3-0.4,0.4-0.9,0.3-1.5C99.9,152.3,99.7,151.9,99.3,151.6z"/>
		<path d="M113.9,146.6c0.1,0.3,0.1,0.7,0,1c-0.1,0.3-0.4,0.6-0.7,0.7c-0.3,0.1-0.7,0.1-1,0c-0.3-0.1-0.6-0.4-0.7-0.7
			c-0.1-0.3-0.1-0.7,0-1c0.1-0.3,0.4-0.6,0.7-0.7c0.3-0.1,0.7-0.1,1,0C113.6,146,113.8,146.3,113.9,146.6z"/>
		<path d="M127,145.5l-5.4-7.8l-1.4,1l-1.2-1.7l3.4-2.3l6.6,9.5L127,145.5z"/>
		<path d="M128.5,129.1l5.2-5.9l1.3,1.1l4.6,10l-1.7,1.9l-4.4-10.1l-3.7,4.2L128.5,129.1z"/>
	</g>
	<g>
		<path class="st0" d="M87.7,170.9c-45.9,0-83.3-37.4-83.3-83.3c0-45.9,37.4-83.3,83.3-83.3S171,41.8,171,87.7
			C171,133.6,133.6,170.9,87.7,170.9z M87.7,6.5C42.9,6.5,6.5,42.9,6.5,87.7s36.4,81.2,81.2,81.2S169,132.5,169,87.7
			S132.5,6.5,87.7,6.5z"/>
	</g>
	<g>
		<path class="st0" d="M87.7,119l-0.6-0.3c-0.3-0.2-8-4.4-15.7-11.3c-10.4-9.3-15.9-19-15.9-28.1v-1.2h0c0.6-9.1,8.2-16.2,17.5-16.2
			c5.9,0,11.4,3.1,14.7,8C91,65,96.4,62,102.4,62c9.7,0,17.5,7.8,17.5,17.5c0,9.2-5.5,18.9-15.9,28c-7.8,6.8-15.4,11-15.7,11.1
			L87.7,119z M57.9,79.9c0.5,18.7,25.8,34.1,29.9,36.4c4.1-2.3,29.9-17.7,29.9-36.8c0-8.3-6.8-15.1-15.2-15.1
			c-5.8,0-11,3.2-13.6,8.4l-1,2.1l-1-2.1c-2.6-5.2-7.9-8.6-13.6-8.6c-8.4,0-15.2,6.8-15.2,15.1V79.9z"/>
	</g>
</g>
</svg>
