<?xml version="1.0" encoding="utf-8"?>
<!-- Generator: Adobe Illustrator 21.1.0, SVG Export Plug-In . SVG Version: 6.00 Build 0)  -->
<svg version="1.1" id="Layer_1" xmlns="http://www.w3.org/2000/svg" xmlns:xlink="http://www.w3.org/1999/xlink" x="0px" y="0px"
	 viewBox="0 0 260 66" style="enable-background:new 0 0 260 66;" xml:space="preserve">
<style type="text/css">
	.st0{fill:#231F20;}
</style>
<g>
	<path class="st0" d="M120.6,12.8c0.4,0.1,0.6,0.4,0.7,0.8c0.1,0.3,0.1,0.7,0.1,1c0,1.7,0,3.4,0,5.1c0,0.6,0,1.3,0.1,1.9
		c0.1,0.7,0.6,1.1,1.4,1.1c2.2,0,4.4,0,6.6,0.1c0.2,0,0.5,0,0.7,0c0.6,0,0.9,0.3,1.1,0.8c0.2,0.7,0.2,1.5,0,2.3
		c-0.2,0.6-0.5,0.8-1.1,0.8c-1.2,0-2.3,0-3.5,0c-1.2,0-2.4,0-3.6,0c-1.1,0-1.7,0.6-1.7,1.7c0,0.2,0,0.3,0,0.5c0,4.7,0,9.4,0,14.1
		c0,1.1,0.1,2.2,0.5,3.3c0.6,1.8,1.9,2.7,3.7,2.9c1.4,0.2,2.7-0.1,4-0.5c0.2-0.1,0.4-0.1,0.7-0.2c0.6-0.1,1.1,0.2,1.2,0.8
		c0.2,0.7,0.2,1.5,0,2.2c-0.1,0.5-0.4,0.8-0.9,1c-1.9,0.9-4,1.3-6.1,1.2c-1.4-0.1-2.7-0.4-3.9-1.2c-1.1-0.7-1.9-1.7-2.4-2.9
		c-0.6-1.3-0.8-2.8-1-4.2c-0.4-3.4-0.2-6.8-0.3-10.1c0-2.2,0-4.3,0-6.5c0-0.3,0-0.6-0.1-0.8c-0.2-0.8-0.7-1.2-1.6-1.2
		c-0.4,0-0.7,0-1.1,0c-0.3,0-0.6,0-0.8,0c-0.6-0.1-1-0.5-1.1-1c-0.3-0.9-0.2-1.7,0.3-2.4c0.3-0.4,0.7-0.5,1.1-0.5c0.5,0,1,0,1.5,0
		c0.2,0,0.4,0,0.6-0.1c0.8-0.2,1.2-0.7,1.2-1.6c0-1.7,0-3.5,0.1-5.2c0-0.7,0.2-1.4,0.8-1.8c0.4-0.3,0.9-0.6,1.4-0.8
		c0.4-0.2,0.7-0.3,1.1-0.5C120.3,12.8,120.5,12.8,120.6,12.8z"/>
	<path class="st0" d="M28.9,44.5c0.5-0.3,0.8-0.7,0.9-1.2c0.4-1.6,0.8-3.2,1.2-4.8c1.2-4.7,2.4-9.4,3.6-14.1
		c0.1-0.3,0.2-0.6,0.4-0.9c0.3-0.4,0.7-0.6,1.2-0.6c0.7,0,1.3,0.2,1.9,0.5c0.7,0.4,1,0.9,0.8,1.7c-0.3,1.2-0.6,2.3-1,3.5
		c-2.2,7.7-4.4,15.4-6.6,23.1c-0.1,0.3-0.2,0.6-0.3,0.9c-0.3,0.8-1.3,1.3-2.2,1.2c-1.3-0.1-1.8-0.6-2.2-2c-0.6-2.3-1.2-4.7-1.8-7
		c-0.9-3.5-1.8-7-2.7-10.5c-0.1-0.4-0.3-0.8-0.4-1.2c-0.1-0.2-0.3-0.4-0.5-0.6c-0.4,0.4-0.6,0.8-0.8,1.3c-0.4,1.3-0.8,2.6-1.2,3.9
		c-1.4,4.7-2.8,9.3-4.3,14c-0.1,0.4-0.2,0.7-0.4,1c-0.2,0.6-0.7,0.9-1.3,1c-0.4,0-0.9,0.1-1.3,0c-0.9-0.1-1.3-0.7-1.5-1.4
		c-0.5-1.8-0.9-3.7-1.4-5.5c-1.7-7-3.5-14-5.2-21c-0.1-0.5-0.2-0.9-0.1-1.4c0.1-0.3,0.2-0.6,0.5-0.7c0.9-0.5,1.8-0.7,2.8-0.6
		c0.5,0,0.8,0.3,0.9,0.8c0.2,0.6,0.3,1.2,0.5,1.8c1.1,5.5,2.3,10.9,3.4,16.4c0.1,0.6,0.2,1.2,0.4,1.8c0.1,0.2,0.2,0.5,0.3,0.7
		c0.2,0.4,0.6,0.4,0.8,0.1c0.2-0.4,0.4-0.8,0.6-1.2c0.5-1.7,1-3.4,1.5-5.1c1.3-4.4,2.6-8.8,3.8-13.2c0.1-0.2,0.2-0.5,0.2-0.7
		c0.2-0.6,0.7-1,1.3-1.1c0.5-0.1,1.1-0.1,1.6,0c0.7,0.1,1.2,0.5,1.4,1.2c0.3,1.1,0.6,2.3,0.9,3.4c1.2,4.8,2.3,9.7,3.5,14.5
		c0.1,0.5,0.2,0.9,0.4,1.4C28.5,43.9,28.7,44.2,28.9,44.5z"/>
	<path class="st0" d="M220.3,38.2c0-4.4,0-8.7,0-13.1c0-0.3,0-0.5,0.1-0.8c0.1-0.4,0.4-0.7,0.9-0.8c0.6-0.1,1.2-0.2,1.8,0
		c0.7,0.2,1,0.6,1.1,1.3c0,0.5,0,1,0.1,1.6c0,0.2,0.1,0.4,0.1,0.5c0.1,0.3,0.3,0.4,0.6,0.3c0.2-0.1,0.4-0.3,0.6-0.5
		c0.7-0.7,1.3-1.4,2-2c1.2-1,2.6-1.6,4.1-1.8c1.3-0.2,2.7-0.1,4,0.3c1.7,0.5,3,1.6,3.8,3.2c0.2,0.4,0.4,0.8,0.7,1.2
		c0.2,0.4,0.7,0.5,1,0.2c0.3-0.3,0.5-0.5,0.7-0.8c0.8-1.1,1.7-2.1,2.9-2.8c1.6-1,3.4-1.4,5.2-1.3c1.6,0.1,3,0.5,4.2,1.5
		c1,0.8,1.7,1.9,2.2,3.1c0.5,1.4,0.7,2.8,0.7,4.3c0,6.5,0,12.9,0,19.4c0,0.3,0,0.6-0.1,0.9c-0.1,0.5-0.4,0.8-0.9,0.9
		c-0.6,0.1-1.2,0.1-1.8,0c-0.7-0.2-1-0.6-1.1-1.3c0-0.3,0-0.5,0-0.8c0-5.2,0-10.5,0-15.7c0-1.1,0-2.3-0.1-3.4
		c-0.1-1.2-0.4-2.4-1.1-3.4c-0.9-1.2-2-1.7-3.5-1.7c-1.6,0-2.9,0.7-4,1.8c-1.2,1.2-2,2.6-2.6,4.2c-0.6,1.6-1,3.2-1.1,5
		c-0.1,2.7-0.1,5.3-0.1,8c0,2,0,4,0,6c0,0.3,0,0.5-0.1,0.8c-0.1,0.4-0.4,0.7-0.9,0.7c-0.5,0-1,0.1-1.4,0c-0.8,0-1.2-0.5-1.3-1.3
		c0-0.3,0-0.6,0-0.9c0-5.8,0-11.7,0-17.5c0-1.4-0.2-2.7-0.7-4c-0.7-1.9-2.4-2.9-4.4-2.7c-1.5,0.1-2.8,0.8-3.9,1.9
		c-1.3,1.3-2.2,2.9-2.7,4.6c-0.5,1.5-0.8,3-0.8,4.6c0,3.7,0,7.4,0,11.1c0,0.9,0,1.8,0,2.7c0,1-0.4,1.4-1.4,1.5
		c-0.5,0.1-1,0.1-1.4-0.1c-0.7-0.2-1-0.6-1-1.3c0-0.3,0-0.6,0-0.8C220.3,46.6,220.3,42.4,220.3,38.2
		C220.3,38.2,220.3,38.2,220.3,38.2z"/>
	<path class="st0" d="M174.5,37.7c-2.2,0-4.4,0-6.6,0c-0.2,0-0.5,0-0.7,0.1c-0.8,0.1-1.2,0.6-1.2,1.4c0,1,0.1,2.1,0.3,3.1
		c0.2,1.2,0.6,2.4,1.2,3.6c1.2,2.1,2.9,3.4,5.3,3.8c2.4,0.4,4.6,0.1,6.8-0.8c0.9-0.4,1.7-0.9,2.5-1.3c0.3-0.1,0.5-0.3,0.8-0.4
		c0.3-0.1,0.6,0,0.8,0.3c0.1,0.3,0.2,0.5,0.3,0.8c0.1,0.7,0.1,1.5-0.2,2.2c-0.2,0.5-0.5,0.8-0.9,1.1c-1.9,1-3.9,1.8-6,2.2
		c-2.8,0.5-5.6,0.3-8.2-0.9c-2.1-0.9-3.6-2.4-4.8-4.4c-1-1.8-1.7-3.8-2.1-5.9c-0.3-2-0.4-4.1-0.3-6.2c0.1-1.8,0.4-3.6,0.9-5.3
		c0.5-1.7,1.3-3.4,2.5-4.8c1.1-1.3,2.5-2.3,4.1-3c1.1-0.6,2.4-0.7,3.6-0.9c1.1-0.1,2.2-0.1,3.4,0c2.1,0.2,4,0.8,5.6,2.3
		c1.2,1.1,2,2.4,2.4,4c0.7,2.6,0.5,5.2-0.6,7.6c-0.4,0.9-1.1,1.3-2,1.3C179,37.7,176.8,37.7,174.5,37.7z M173.1,33.6
		C173.1,33.6,173.1,33.5,173.1,33.6c1.7-0.1,3.3-0.1,5-0.1c0.8,0,1.3-0.4,1.6-1c0.5-1.3,0.3-2.6-0.4-3.8c-0.6-1-1.6-1.5-2.7-1.8
		c-1.4-0.4-2.7-0.4-4.1-0.2c-1.3,0.2-2.5,0.8-3.4,1.7c-0.8,0.7-1.4,1.6-1.9,2.6c-0.3,0.5-0.4,1-0.4,1.6c0,0.4,0.2,0.7,0.5,0.8
		c0.3,0.1,0.7,0.2,1,0.2C169.9,33.6,171.5,33.6,173.1,33.6z"/>
	<path class="st0" d="M61.4,37.7c-2.3,0-4.6,0-6.8,0c-0.3,0-0.6,0.1-0.8,0.2C53.2,38,53,38.4,52.9,39c-0.1,2.2,0.3,4.4,1.3,6.4
		c1.2,2.5,3.1,3.9,5.9,4.3c2.8,0.4,5.4-0.3,7.9-1.6c0.6-0.3,1.1-0.6,1.7-0.9c0.5-0.3,1,0,1.1,0.5c0.2,1,0.2,1.9-0.1,2.8
		c-0.2,0.5-0.5,0.8-0.9,1c-1,0.5-2,1-3,1.3c-2.1,0.8-4.4,1.2-6.7,1c-2.7-0.2-5.2-1-7.3-2.9c-0.9-0.9-1.6-1.9-2.2-3
		c-1.1-1.9-1.7-4-1.9-6.2c-0.2-1.6-0.3-3.2-0.2-4.9c0.1-2.6,0.6-5.1,1.6-7.5c0.9-2.1,2.2-3.7,4.1-4.9c0.9-0.6,1.9-1.2,3-1.5
		c0.8-0.2,1.6-0.3,2.4-0.4c1.1-0.1,2.2-0.1,3.3,0c1.9,0.2,3.7,0.7,5.3,1.9c1.4,1.1,2.2,2.5,2.7,4.1c0.8,2.7,0.6,5.3-0.6,7.8
		c-0.4,0.9-1.1,1.3-2.1,1.3C65.9,37.7,63.7,37.7,61.4,37.7L61.4,37.7z M60.1,33.6C60.1,33.6,60.1,33.5,60.1,33.6c0.1,0,0.3,0,0.4,0
		c1.5,0,3,0,4.5,0c0.9,0,1.4-0.4,1.7-1.3c0.2-0.7,0.2-1.4,0.1-2.2c-0.3-1.5-1.3-2.4-2.7-3c-1.6-0.7-3.3-0.7-4.9-0.3
		c-1.5,0.4-2.9,1.1-3.9,2.3c-0.7,0.9-1.3,1.8-1.5,3c-0.1,0.8,0.1,1.2,0.8,1.4c0.1,0,0.3,0.1,0.4,0.1C56.7,33.6,58.4,33.6,60.1,33.6z
		"/>
	<path class="st0" d="M93,22.3c2.8,0.1,4.8,0.6,6.8,1.4c0.8,0.4,1.4,1.2,0.9,2.2c-0.1,0.3-0.3,0.6-0.4,0.9c-0.5,0.7-1,1-1.8,0.7
		c-0.8-0.2-1.6-0.6-2.4-0.8c-1.1-0.3-2.2-0.6-3.3-0.5c-1.1,0.1-2.1,0.4-3,1.1c-1,0.8-1.4,1.8-1.4,3c0,1.8,0.9,3.1,2.4,4.1
		c1.4,0.9,2.8,1.6,4.3,2.2c1.4,0.6,2.7,1.2,4,2.1c1.9,1.3,3,3.1,3.3,5.4c0.3,3.6-1,6.5-4.1,8.4c-1.4,0.9-3,1.3-4.7,1.4
		c-2.4,0.2-4.8-0.3-7.1-1c-0.7-0.2-1.5-0.5-2.2-0.8c-0.2-0.1-0.4-0.3-0.6-0.4c-0.5-0.4-0.6-0.9-0.5-1.4c0.1-0.7,0.4-1.3,0.9-1.8
		c0.4-0.4,0.9-0.4,1.4-0.3c0.4,0.1,0.8,0.3,1.1,0.5c1.5,0.6,3,1.1,4.7,1.3c1.3,0.1,2.5,0.1,3.7-0.4c1.6-0.8,2.6-2.2,2.6-4
		c0-1.2-0.5-2.2-1.4-3c-1-0.9-2.2-1.5-3.4-2.1c-1.5-0.7-3-1.4-4.5-2.2c-1.4-0.8-2.5-1.8-3.4-3.1c-1-1.4-1.4-3.1-1.2-4.8
		c0.2-1.7,0.8-3.3,1.9-4.6c1.1-1.4,2.5-2.2,4.2-2.8C91,22.4,92.3,22.3,93,22.3z"/>
	<path class="st0" d="M203.9,33.5c0,5.8,0,11.7,0,17.5c0,0.3,0,0.7-0.1,1c-0.1,0.4-0.3,0.7-0.7,0.8c-0.9,0.3-1.8,0.3-2.6,0
		c-0.5-0.2-0.7-0.7-0.8-1.2c0-0.1,0-0.2,0-0.4c0-10.7,0-21.3,0-32c0-0.2,0-0.5-0.1-0.7c-0.2-0.8-0.7-1.1-1.4-1.1c-0.3,0-0.6,0-0.9,0
		c-0.6,0-1.1-0.4-1.3-1c-0.1-0.4-0.2-0.9-0.1-1.3c0.2-0.7,0.6-1.1,1.5-1.2c1.6,0,3.1,0,4.7,0c0.3,0,0.5,0.1,0.8,0.1
		c0.6,0.2,0.9,0.6,1,1.2c0,0.1,0,0.3,0,0.4C203.9,21.6,203.9,27.5,203.9,33.5C203.9,33.5,203.9,33.5,203.9,33.5z"/>
</g>
</svg>
